<svg xmlns="http://www.w3.org/2000/svg" id="Layer_1" data-name="Layer 1" viewBox="0 0 554.67 230.37"><defs><style> .cls-1 { fill: #fff; stroke-width: 0px; } </style></defs><g><g><path class="cls-1" d="m227.39,105.35c-1.17,1.21-2.33,2.38-3.49,3.52-7.87,7.79-15.45,14.26-22.6,19.66,6.05-8.82,10.85-19.17,14.31-30.88.82-2.82,1.56-5.65,2.16-8.33l.04-.04c.89-.95,2.45-.67,3,.53,1.42,3.12,2.88,6.1,4.37,8.96.81,1.6,1.65,3.16,2.49,4.68.33.63.23,1.39-.26,1.89Z"></path><path class="cls-1" d="m533.88,11.52l-.04.18c-.95,5.37-6.01,9.75-11.38,9.84-.09,0-5.21.3-13.96,3.47h-.02c-7.61,2.77-17.99,7.72-30.19,16.53-9.45,6.84-20.01,15.97-31.26,28.25-3.79,4.14-7.66,8.64-11.61,13.54-.4.51-.81,1.02-1.23,1.51-8.98,11.03-17.67,20.36-26,28.25-6.05,5.75-11.91,10.73-17.53,15.06-8.91,6.86-17.24,12.06-24.85,15.99-10.54,5.45-19.69,8.49-27.09,10.12-3.28.74-6.19,1.19-8.75,1.47-.54.05-1.09.11-1.68.16-4.7.44-10.24.63-15.8.14-.6,0-1.17-.05-1.79-.14-.58-.05-1.21-.11-1.88-.19-.67-.11-1.35-.21-2.02-.3-.79-.05-1.49-.21-2.24-.35-19.11-3.54-50.94-17.87-75.1-71.72-.05-.11-.11-.23-.16-.33-2.54-5.68-5.21-10.84-7.94-15.5.09-.91.18-1.82.25-2.74l.02-.21c1.16-14.96-.42-27.67-4.73-38.08,8.57,8.38,17.34,19.64,25.37,34.74,1.96,3.66,3.86,7.54,5.72,11.68,4.66,10.42,9.57,19.15,14.55,26.44,9.87,14.5,20.01,23.41,29,28.83,6.51,3.93,12.43,6.03,17.25,7.15,7.21,1.91,14.71,1.72,20.57,1.12h.25c1.24-.11,2.7-.23,4.35-.49,2.37-.35,5.16-.93,8.33-1.84,10.49-3.03,25.2-9.78,42.94-24.55,8.1-6.72,16.82-15.11,26.07-25.58,3.05-3.47,6.17-7.15,9.35-11.08.84-1.05,1.68-2.07,2.52-3.09,9.21-11.15,18.15-20.46,26.69-28.25,26.44-24.11,48.87-33.56,62.3-37.28,8-2.19,12.82-2.37,13.43-2.38,5.47-.09,9.17,4.19,8.29,9.64Z"></path><path class="cls-1" d="m384.57,68.77l-3.5,19.57c-1,5.57,5.48,8.15,9.85,3.91.08-.08.17-.16.25-.24,1.11-1.08,1.87-2.49,2.13-3.91l3.41-19.08c.25-1.42,0-2.82-.73-3.91-.05-.08-.11-.16-.16-.24-2.85-4.25-10.25-1.67-11.25,3.91Z"></path><path class="cls-1" d="m466.2,101.03c3.13,3.73,10.01,1.04,10.97-4.28l6.5-36.34c.95-5.32-4.97-8.01-9.43-4.28-.06.05-.12.1-.18.15-1.34,1.12-2.26,2.68-2.54,4.28l-6.44,36.03c-.29,1.6.08,3.16,1.01,4.28.04.05.09.1.13.15Z"></path><path class="cls-1" d="m492.73,122.16c3.65,1.7,8.55-1.22,9.32-5.52l13.62-76.16c.77-4.3-3.08-7.21-7.34-5.53-.06.02-.11.04-.17.07-2.37.94-4.21,3.13-4.64,5.53l-13.6,76.02c-.43,2.39.63,4.57,2.65,5.52.05.02.1.04.14.07Z"></path><path class="cls-1" d="m370.58,38.92c-3.61-2.37-9.19.43-10.03,5.11l-12.36,69.12c-.84,4.67,3.73,7.48,8.18,5.12.06-.03.11-.06.17-.09,1.99-1.06,3.42-3.04,3.8-5.13l12.33-68.93c.37-2.08-.34-4.06-1.95-5.12-.05-.03-.09-.06-.14-.09Z"></path><path class="cls-1" d="m307.11,40.58c-.08.04-.15.09-.23.13-1.9,1.08-3.25,3.01-3.61,5.02l-11.74,65.65c-.36,2.01.3,3.93,1.8,5.02.06.04.12.09.18.13,3.56,2.57,9.33-.24,10.18-5.01l11.79-65.92c.85-4.76-3.89-7.56-8.37-5.02Z"></path><path class="cls-1" d="m272.32,68.23c-.06.06-.13.13-.19.19-1.06,1.07-1.79,2.43-2.03,3.81l-2.28,12.75c-.25,1.37-.01,2.73.66,3.8.04.06.08.13.12.19,2.76,4.39,10.31,1.85,11.32-3.8l2.35-13.13c1.01-5.64-5.61-8.18-9.94-3.81Z"></path><path class="cls-1" d="m340.42,30.53c-3.29.02-6.42,2.7-7.01,5.99l-15.06,84.18c-.59,3.28,1.58,5.95,4.85,5.99h.16c3.33.04,6.53-2.66,7.12-5.99l15.06-84.18c.59-3.33-1.63-6.01-4.96-5.99-.05,0-.1,0-.16,0Z"></path><path class="cls-1" d="m498.13,155.33c5.43.1,10.67-4.18,11.74-9.63l.04-.2c.96-5.35-2.53-9.73-7.87-9.82-.24,0-31-1.88-56.52-45.5-.83-1.42-2.81-1.59-3.86-.33-2.67,3.19-7.24,8.62-10.6,12.43-1.17,1.33-1.34,3.28-.39,4.77,29.77,46.9,65.74,48.23,67.47,48.28Z"></path><path class="cls-1" d="m257.21,67.65v.02c.5,1.09,1.94,1.32,2.75.44,30.58-33.01,55.09-43.2,69.08-46.19,7.91-1.92,15.34-1.72,20.98-1.13h.25c1.21.1,2.61.25,4.19.49,12.41,1.97,35.1,10.74,55.49,46.14.7,1.22,2.42,1.35,3.3.25,0,0,.01-.02.02-.02,3.82-4.71,7.6-9.15,11.32-13.3.9-1,1.04-2.48.33-3.63C400.83,12.19,373.09,3.22,357.55,1.48c-.53-.05-1.06-.1-1.64-.15-4.54-.44-10-.64-15.74-.15-.59,0-1.19.05-1.84.15-.6.05-1.25.1-1.95.2-.71.1-1.41.2-2.12.29-.79.05-1.56.2-2.37.34-17.24,2.97-46.41,13.72-81.26,49.65-.51.53-.63,1.33-.27,1.97,2.36,4.31,4.66,8.91,6.85,13.86Z"></path><path class="cls-1" d="m115.19,75.14c2.28-9.47,3.02-13.31,3.02-13.31H46.42c-18.37,0-21,11.97-22.74,19.2-2.28,9.47-3.02,13.31-3.02,13.31h71.79c18.37,0,21-11.97,22.74-19.2Z"></path></g><path class="cls-1" d="m212.89,63.86c-.11,1.23-.21,2.47-.35,3.72-.21,2.14-.49,4.31-.82,6.52-.32,2.23-.7,4.47-1.12,6.75v.02c-.18.89-.33,1.79-.53,2.67-.05.32-.12.63-.21.95-.14.75-.3,1.49-.47,2.23-.65,2.89-1.39,5.72-2.19,8.47-7.31,24.71-20.99,43.52-41.77,53.11-7.64,3.52-14.99,6-26.86,7.19-.47.05-.95.09-1.44.14-2.38.21-4.96.37-7.77.49-.53.02-1.07.04-1.61.05-.23.02-.47.02-.7.02-.98.03-1.98.07-3.02.09-1.56.02-3.19.04-4.89.04H49.17l5.82-32.47,61.51.02c2.38,0,4.66-.05,6.84-.19,1.58-.09,3.09-.21,4.54-.37.96-.11,1.93-.21,2.84-.35.93-.14,1.82-.28,2.72-.44.19-.02.39-.05.58-.09.25-.04.47-.09.72-.14.3-.05.58-.12.88-.19.98-.19,1.91-.42,2.84-.65,1.19-.3,2.33-.63,3.42-1,.72-.21,1.44-.46,2.12-.74.68-.25,1.37-.51,2.02-.81.33-.12.65-.26.96-.42,1.26-.56,2.46-1.16,3.58-1.82.28-.14.56-.32.82-.49.28-.18.54-.33.81-.51.79-.49,1.54-1.02,2.26-1.56.47-.35.95-.72,1.39-1.1.23-.19.44-.37.67-.56,1.09-.93,2.07-1.91,2.98-2.93.18-.21.35-.42.54-.63.11-.11.19-.21.28-.32.14-.18.3-.37.46-.56.11-.12.19-.25.28-.37.16-.21.32-.42.47-.63.32-.42.63-.84.91-1.26.28-.44.56-.88.84-1.32.16-.21.28-.44.4-.65,1.17-1.96,2.14-3.98,2.98-5.98.11-.21.19-.44.28-.65.09-.23.18-.44.26-.67s.18-.46.25-.68c.07-.21.16-.44.25-.67.11-.21.18-.42.25-.63.07-.23.16-.46.23-.67.28-.82.61-1.91.98-3.21.07-.26.14-.54.23-.82.16-.54.32-1.1.47-1.72,1.95-7.26,4.31-18.2,4.42-25.42.12-8.35-1.65-15.22-6.38-20.29-5.89-6.31-16.43-9.8-33.74-9.8l-63.28-.07L76.68,0h70.12c1.17,0,2.31.02,3.45.03,1.12.04,2.24.07,3.33.11.88.04,1.74.09,2.58.14,1.03.07,2.03.14,3.03.23.93.07,1.84.18,2.75.26.04,0,.07,0,.11.02.7.07,1.4.16,2.09.25.7.09,1.39.18,2.07.3.79.12,1.56.25,2.31.39.53.07,1.05.18,1.58.28.04-.02.05,0,.09,0,.04-.02.05,0,.07,0,34.95,6.75,45.1,29.98,42.63,61.86Z"></path></g><g><path class="cls-1" d="m0,229.96l8.32-41.59h16.81c4.24,0,7.86.7,10.87,2.11,3.01,1.41,5.32,3.4,6.92,5.97,1.6,2.57,2.41,5.6,2.41,9.09,0,3.68-.62,7.03-1.87,10.04-1.25,3.01-3.01,5.58-5.29,7.69-2.28,2.12-5,3.76-8.17,4.93-3.17,1.17-6.69,1.75-10.57,1.75H0Zm9.03-6.54h10.63c3.72,0,6.92-.76,9.6-2.29,2.67-1.52,4.72-3.59,6.15-6.21s2.14-5.58,2.14-8.91c0-2.26-.5-4.22-1.49-5.88-.99-1.66-2.47-2.95-4.43-3.86-1.96-.91-4.41-1.37-7.34-1.37h-9.56l-5.7,28.52Z"></path><path class="cls-1" d="m69.75,230.37c-2.57,0-4.92-.55-7.04-1.66-2.12-1.11-3.8-2.7-5.05-4.78-1.25-2.08-1.87-4.58-1.87-7.52,0-2.69.45-5.17,1.34-7.43.89-2.26,2.15-4.22,3.77-5.88,1.62-1.66,3.51-2.95,5.67-3.86s4.53-1.37,7.1-1.37,4.94.48,6.86,1.43c1.92.95,3.38,2.39,4.37,4.31.99,1.92,1.45,4.31,1.37,7.16-.08,3.92-.79,7.36-2.14,10.31-1.35,2.95-3.23,5.24-5.64,6.86-2.42,1.62-5.33,2.44-8.73,2.44Zm1.9-6.36c2.14,0,4.02-.5,5.64-1.51,1.62-1.01,2.91-2.41,3.86-4.19.95-1.78,1.43-3.84,1.43-6.18,0-2.46-.73-4.4-2.2-5.82-1.47-1.43-3.53-2.14-6.18-2.14-2.1,0-3.97.51-5.61,1.52-1.64,1.01-2.94,2.41-3.89,4.19-.95,1.78-1.43,3.84-1.43,6.18,0,2.46.73,4.4,2.2,5.82,1.46,1.43,3.52,2.14,6.18,2.14Zm7.78,5.94l1.43-7.25,2.02-8.44,1.01-8.5,1.49-7.54h7.43l-6.3,31.72h-7.07Z"></path><path class="cls-1" d="m114.18,230.37c-2.77,0-5.37-.34-7.78-1.01s-4.28-1.49-5.58-2.44l3.09-5.7c1.31.91,2.94,1.65,4.9,2.23,1.96.57,4.01.86,6.15.86,2.45,0,4.27-.34,5.44-1.01s1.75-1.6,1.75-2.79c0-.87-.42-1.52-1.25-1.96-.83-.44-1.89-.79-3.18-1.07-1.29-.28-2.67-.57-4.16-.89-1.49-.32-2.87-.75-4.16-1.31-1.29-.55-2.35-1.37-3.18-2.44-.83-1.07-1.25-2.49-1.25-4.28,0-2.26.63-4.18,1.9-5.76,1.27-1.58,3.04-2.8,5.32-3.65,2.28-.85,4.9-1.28,7.87-1.28,2.14,0,4.24.24,6.3.71,2.06.48,3.76,1.15,5.11,2.02l-2.73,5.7c-1.43-.91-2.96-1.54-4.6-1.9-1.64-.36-3.24-.53-4.78-.53-2.42,0-4.21.37-5.38,1.1-1.17.73-1.75,1.65-1.75,2.76,0,.87.42,1.54,1.25,2.02.83.48,1.89.86,3.18,1.16,1.29.3,2.67.59,4.16.89,1.49.3,2.87.72,4.16,1.28,1.29.56,2.35,1.36,3.18,2.41.83,1.05,1.25,2.45,1.25,4.19,0,2.3-.64,4.25-1.93,5.85-1.29,1.6-3.08,2.81-5.38,3.62-2.3.81-4.93,1.22-7.9,1.22Z"></path><path class="cls-1" d="m164.68,197.87c2.73,0,5.04.56,6.92,1.66,1.88,1.11,3.22,2.74,4.01,4.9.79,2.16.87,4.8.24,7.93l-3.5,17.59h-7.43l3.45-17.41c.52-2.57.28-4.58-.71-6.03-.99-1.45-2.79-2.17-5.41-2.17s-4.99.75-6.77,2.26c-1.78,1.51-2.99,3.8-3.62,6.89l-3.33,16.46h-7.43l8.79-44.08h7.43l-4.28,21.39-1.54-2.85c1.5-2.26,3.4-3.91,5.67-4.96,2.28-1.05,4.78-1.57,7.51-1.57Z"></path><path class="cls-1" d="m222.13,223.48h23.53l-1.31,6.48h-31.19l8.32-41.59h30.36l-1.31,6.48h-22.69l-5.7,28.64Zm2.97-17.82h20.73l-1.25,6.36h-20.73l1.25-6.36Z"></path><path class="cls-1" d="m267.46,229.96l-7.31-31.72h7.31l6.3,27.98h-3.74l17.53-27.98h7.49l-19.9,31.72h-7.66Z"></path><path class="cls-1" d="m315.22,230.37c-3.09,0-5.79-.58-8.11-1.75-2.32-1.17-4.11-2.79-5.38-4.87-1.27-2.08-1.9-4.52-1.9-7.34,0-3.56.81-6.74,2.44-9.53,1.62-2.79,3.85-4.99,6.68-6.59,2.83-1.6,6.07-2.41,9.71-2.41,3.13,0,5.85.56,8.17,1.69s4.11,2.73,5.38,4.81c1.27,2.08,1.9,4.54,1.9,7.4,0,3.53-.81,6.69-2.44,9.51-1.62,2.81-3.85,5.03-6.68,6.65-2.83,1.62-6.09,2.44-9.77,2.44Zm.48-6.36c2.14,0,4.02-.5,5.64-1.51,1.62-1.01,2.91-2.41,3.86-4.19.95-1.78,1.43-3.84,1.43-6.18,0-2.46-.73-4.4-2.2-5.82-1.47-1.43-3.53-2.14-6.18-2.14-2.1,0-3.97.51-5.61,1.52-1.64,1.01-2.94,2.41-3.89,4.19-.95,1.78-1.43,3.84-1.43,6.18,0,2.49.73,4.45,2.2,5.85,1.46,1.41,3.52,2.11,6.18,2.11Z"></path><path class="cls-1" d="m344.99,229.96l8.79-44.08h7.43l-8.79,44.08h-7.43Z"></path><path class="cls-1" d="m382.89,230.37c-2.65,0-4.92-.56-6.8-1.69s-3.22-2.77-4.01-4.93c-.79-2.16-.87-4.8-.24-7.93l3.5-17.59h7.43l-3.5,17.41c-.48,2.57-.23,4.58.74,6.03.97,1.45,2.74,2.17,5.32,2.17s4.88-.75,6.68-2.26c1.8-1.5,3-3.8,3.59-6.89l3.33-16.46h7.37l-6.3,31.72h-7.07l1.78-9.03,1.19,2.85c-1.51,2.26-3.4,3.92-5.67,4.99-2.28,1.07-4.72,1.6-7.34,1.6Z"></path><path class="cls-1" d="m417.76,204.41l1.19-5.94h21.09l-1.19,5.94h-21.09Zm10.99,25.96c-2.06,0-3.83-.44-5.32-1.34-1.49-.89-2.55-2.16-3.21-3.8-.65-1.64-.76-3.59-.33-5.85l5.64-28.16h7.43l-5.64,28.1c-.24,1.47-.08,2.65.48,3.56.55.91,1.6,1.37,3.15,1.37.71,0,1.44-.11,2.17-.33.73-.22,1.4-.52,1.99-.92l1.31,5.47c-1.11.71-2.34,1.21-3.68,1.49s-2.67.42-3.98.42Z"></path><path class="cls-1" d="m449.19,229.96l6.3-31.72h7.43l-6.3,31.72h-7.43Zm11.7-36.95c-1.35,0-2.43-.4-3.24-1.22-.81-.81-1.22-1.79-1.22-2.94,0-1.35.47-2.47,1.4-3.39.93-.91,2.15-1.37,3.65-1.37,1.31,0,2.38.39,3.21,1.16.83.77,1.25,1.71,1.25,2.82,0,1.47-.46,2.65-1.37,3.56s-2.14,1.37-3.68,1.37Z"></path><path class="cls-1" d="m489.17,230.37c-3.09,0-5.79-.58-8.11-1.75-2.32-1.17-4.11-2.79-5.38-4.87-1.27-2.08-1.9-4.52-1.9-7.34,0-3.56.81-6.74,2.44-9.53,1.62-2.79,3.85-4.99,6.68-6.59,2.83-1.6,6.07-2.41,9.71-2.41,3.13,0,5.85.56,8.17,1.69s4.11,2.73,5.38,4.81c1.27,2.08,1.9,4.54,1.9,7.4,0,3.53-.81,6.69-2.44,9.51-1.62,2.81-3.85,5.03-6.68,6.65-2.83,1.62-6.09,2.44-9.77,2.44Zm.48-6.36c2.14,0,4.02-.5,5.64-1.51,1.62-1.01,2.91-2.41,3.86-4.19.95-1.78,1.43-3.84,1.43-6.18,0-2.46-.73-4.4-2.2-5.82-1.47-1.43-3.53-2.14-6.18-2.14-2.1,0-3.97.51-5.61,1.52-1.64,1.01-2.94,2.41-3.89,4.19-.95,1.78-1.43,3.84-1.43,6.18,0,2.49.73,4.45,2.2,5.85,1.46,1.41,3.52,2.11,6.18,2.11Z"></path><path class="cls-1" d="m542.52,197.87c2.73,0,5.05.56,6.95,1.66,1.9,1.11,3.24,2.74,4.01,4.9.77,2.16.84,4.8.21,7.93l-3.5,17.59h-7.43l3.45-17.41c.52-2.57.28-4.58-.71-6.03-.99-1.45-2.79-2.17-5.41-2.17s-4.99.75-6.77,2.26c-1.78,1.51-2.99,3.8-3.62,6.89l-3.33,16.46h-7.43l6.3-31.72h7.07l-1.78,9.03-1.19-2.85c1.5-2.26,3.4-3.91,5.67-4.96,2.28-1.05,4.78-1.57,7.51-1.57Z"></path></g></svg>